<svg width="611.998" height="611.998" xmlns="http://www.w3.org/2000/svg">
    <g>
        <rect rx="39" id="svg_9" height="578.000012" width="580.000004" y="15.452098" x="15.49902" stroke-width="1.5"
              fill="#282828"/>
        <g stroke="null" id="svg_1">
            <g stroke="null" id="svg_2">
                <path fill="#ffffff" stroke="null" id="svg_3"
                      d="m371.948372,162.116505c8.782528,9.844361 14.98787,22.002487 18.449464,36.137632c3.285075,13.417299 4.019215,28.340897 2.185222,44.361633c-0.679827,5.925627 -1.68463,12.636991 -3.14929,19.735794c11.344325,10.984949 26.206368,17.95883 45.529378,17.957925c53.607639,-0.004526 72.897155,-53.680057 77.94471,-97.770122c6.220731,-54.317338 -19.460605,-95.196557 -77.94471,-95.196557c-45.89328,0 -71.584574,25.18346 -77.512916,62.277918c5.36348,3.549401 10.227273,7.707116 14.498141,12.495776z"/>
                <path fill="#ffffff" stroke="null" id="svg_4"
                      d="m579.975339,408.120528c-0.583872,-17.107916 -2.589859,-34.296397 -5.577113,-51.140891c-3.613673,-20.402948 -8.219476,-50.317133 -26.03347,-63.614941c-10.301502,-7.686296 -23.641856,-10.209168 -35.433364,-14.843939c-5.741865,-2.25583 -10.884469,-4.496271 -15.709337,-7.0463c-16.289589,17.863781 -37.529873,27.206646 -62.263435,27.208456c-19.246066,0 -36.364844,-5.685741 -50.693708,-16.618187c-3.298653,10.203737 -7.714358,20.478987 -13.618259,29.867113c5.18515,3.122133 10.793041,5.616038 17.607602,8.293705c3.016222,1.185849 6.327548,2.268503 9.834404,3.413617c9.479554,3.097692 20.221902,6.609074 29.867113,13.809263c22.928536,17.115157 28.572636,49.186502 32.694142,72.605672l0.443562,2.527398c2.131813,12.008763 3.696954,23.806607 4.704473,35.268612c18.299196,-1.874728 36.505154,-5.078333 54.356263,-8.847704c14.430249,-3.046094 28.762734,-6.762963 42.644415,-11.770688c11.088145,-4.000205 17.632043,-5.859545 17.176713,-19.111187z"/>
                <path fill="#ffffff" stroke="null" id="svg_5"
                      d="m171.031976,280.308584c19.322105,0.00181 34.183243,-6.972976 45.528473,-17.957925c-1.46466,-7.097898 -2.469464,-13.810168 -3.14929,-19.735794c-1.833993,-16.019831 -1.098948,-30.944335 2.185222,-44.361633c3.460689,-14.13424 9.666936,-26.29327 18.449464,-36.137632c4.270869,-4.789565 9.133757,-8.94728 14.496331,-12.496681c-5.928342,-37.094458 -31.619636,-62.277918 -77.512916,-62.277918c-58.4832,0 -84.165441,40.880124 -77.945615,95.196557c5.051176,44.091875 24.340692,97.767406 77.948331,97.771027z"/>
                <path fill="#ffffff" stroke="null" id="svg_6"
                      d="m178.03935,337.44933c9.645211,-7.200188 20.389369,-10.71157 29.867113,-13.809263c3.507761,-1.145114 6.817277,-2.227768 9.834404,-3.413617c6.814561,-2.676761 12.424263,-5.169761 17.607602,-8.293705c-5.902091,-9.386316 -10.319606,-19.663376 -13.617354,-29.867113c-14.328864,10.932446 -31.448547,16.618187 -50.693708,16.618187c-24.732656,-0.000905 -45.974751,-9.34558 -62.263435,-27.208456c-4.823963,2.550029 -9.968378,4.789565 -15.709337,7.0463c-11.791508,4.634771 -25.131862,7.157643 -35.433364,14.843939c-17.813089,13.298714 -22.419797,43.211088 -26.03347,63.614941c-2.987254,16.843589 -4.993241,34.03207 -5.577113,51.140891c-0.454425,13.252547 6.088568,15.110981 17.175808,19.111187c13.880776,5.006819 28.215976,8.723688 42.644415,11.770688c17.851108,3.770277 36.057971,6.973881 54.356263,8.847704c1.006614,-11.462005 2.571754,-23.258039 4.704473,-35.268612l0.443562,-2.527398c4.122411,-23.418264 9.765606,-55.490514 32.694142,-72.605672z"/>
                <path fill="#ffffff" stroke="null" id="svg_7"
                      d="m451.775052,414.186465l-0.446278,-2.539166c-3.854463,-21.903817 -9.134662,-51.900377 -29.140214,-66.834839c-8.437636,-6.297675 -17.988703,-9.417999 -27.227466,-12.437841c-3.638114,-1.188565 -7.071646,-2.311954 -10.344047,-3.597379c-4.76965,-1.873823 -9.06677,-3.708722 -13.093227,-5.737339c-16.913291,22.56916 -40.355092,34.452096 -68.238849,34.454812c-27.876515,0 -51.314694,-11.883841 -68.227986,-34.454812c-4.027362,2.030428 -8.324482,3.864421 -13.095942,5.739149c-3.267875,1.283614 -6.704123,2.407003 -10.341332,3.595568c-9.239668,3.018937 -18.793451,6.141071 -27.228372,12.437841c-20.011889,14.936272 -25.288467,44.940075 -29.142025,66.847512l-0.446278,2.530114c-3.219898,18.182422 -5.141699,35.821707 -5.710182,52.42541c-0.667153,19.479615 11.423985,23.821996 22.090294,27.654734l1.148735,0.413689c12.827089,4.627529 27.175868,8.59243 43.864663,12.119201c34.078236,7.192947 61.733876,10.627384 87.026869,10.806619l0.065176,0l0.065176,0c25.297519,-0.18014 52.951348,-3.613673 87.024153,-10.806619c16.69151,-3.52496 31.039384,-7.489862 43.861042,-12.118295l1.14783,-0.412784c10.669024,-3.831833 22.763784,-8.173309 22.09663,-27.65745c-0.567578,-16.648059 -2.490284,-34.285534 -5.708372,-52.428126z"/>
                <path fill="#ffffff" stroke="null" id="svg_8"
                      d="m226.059918,245.455472c5.04846,44.092781 24.335261,97.772837 77.942899,97.770122s72.897155,-53.677341 77.945615,-97.770122c6.219826,-54.315527 -19.465131,-95.193841 -77.945615,-95.193841c-58.471432,-0.00181 -84.172683,40.873788 -77.942899,95.193841z"/>
            </g>
        </g>
    </g>
</svg>
